<svg width="24" height="24" viewBox="0 0 24 24" fill="none" xmlns="http://www.w3.org/2000/svg">
<path d="M18.2624 2.3999C17.853 2.3999 17.4436 2.55625 17.1312 2.86865L15.1999 4.7999L19.1999 8.7999L21.1312 6.86865C21.756 6.24385 21.756 5.23095 21.1312 4.60615L19.3937 2.86865C19.0813 2.55625 18.6718 2.3999 18.2624 2.3999ZM13.5999 6.3999L4.20771 15.7921C4.20771 15.7921 4.94193 15.7263 5.21553 15.9999C5.48913 16.2735 5.2639 18.0639 5.5999 18.3999C5.9359 18.7359 7.71501 18.4994 7.97021 18.7546C8.22542 19.0098 8.20772 19.7921 8.20772 19.7921L17.5999 10.3999L13.5999 6.3999ZM3.1999 18.3999L2.44521 20.5374C2.41555 20.6218 2.40023 20.7105 2.3999 20.7999C2.3999 21.0121 2.48419 21.2156 2.63422 21.3656C2.78425 21.5156 2.98773 21.5999 3.1999 21.5999C3.28932 21.5996 3.37805 21.5843 3.4624 21.5546C3.46501 21.5536 3.46762 21.5525 3.47021 21.5515L3.49053 21.5452C3.49209 21.5442 3.49366 21.5431 3.49521 21.5421L5.5999 20.7999L4.3999 19.5999L3.1999 18.3999Z" fill="#141414"/>
</svg>
