<svg width="26" height="26" viewBox="0 0 26 26" fill="none" xmlns="http://www.w3.org/2000/svg">
<path d="M10.7143 4.42857L8.42857 5.57143L5.57143 3.28571L3.28571 5.57143L5.57143 8.42857L4.42857 10.7143L1 11.2857V14.7143L4.42857 15.2857L5.57143 17.5714L3.28571 20.4286L5.57143 22.7143L8.42857 20.4286L10.7143 21.5714L11.2857 25H14.7143L15.2857 21.5714L17.5714 20.4286L20.4286 22.7143L22.7143 20.4286L20.4286 17.5714L21.5714 15.2857L25 14.7143V11.8571L21.5714 11.2857L20.4286 8.42857L22.7143 5.57143L20.4286 3.28571L17.5714 5.57143L15.2857 4.42857L14.7143 1H11.2857L10.7143 4.42857Z" stroke="black" stroke-width="1.5"/>
<circle cx="13" cy="13" r="3.75" stroke="black" stroke-width="1.5"/>
</svg>
