<svg id="Layer_2" data-name="Layer 2" xmlns="http://www.w3.org/2000/svg" viewBox="0 0 35.66 32.72"><defs><style>.cls-1,.cls-2{fill:none;}.cls-1{stroke:#141414;stroke-miterlimit:10;stroke-width:1.5px;}</style></defs><title>to-shelve</title><rect class="cls-1" x="5.33" y="0.75" width="7.61" height="21.41"/><path class="cls-1" d="M21.37,9.19v12a8.68,8.68,0,0,0-3,5.54H13.76V9.19Z" transform="translate(-0.79 -4.62)"/><path class="cls-1" d="M28.24,13v6.21A8.15,8.15,0,0,0,27,19.13a8.57,8.57,0,0,0-5.62,2.08V13Z" transform="translate(-0.79 -4.62)"/><path class="cls-1" d="M19.91,32.87H1.54V26.78H18.41a7.64,7.64,0,0,0-.07,1.08c0,.14,0,.28,0,.42A8.76,8.76,0,0,0,19.91,32.87Z" transform="translate(-0.79 -4.62)"/><path class="cls-1" d="M28.24,19.22A8.15,8.15,0,0,0,27,19.13a8.57,8.57,0,0,0-5.62,2.08l0,0a8.68,8.68,0,0,0-3,5.54,7.64,7.64,0,0,0-.07,1.08c0,.14,0,.28,0,.42a8.76,8.76,0,0,0,1.56,4.59,8.7,8.7,0,1,0,8.33-13.65Zm3.84,9.56H27.6v4.1H26.35v-4.1h-4.2V27.53h4.2V22.94H27.6v4.59h4.48Z" transform="translate(-0.79 -4.62)"/><rect class="cls-1" x="25.56" y="28.25" width="1.25" height="0.01"/><rect class="cls-2" x="25.56" y="28.25" width="1.25" height="0.01"/></svg>